:SAMPLES-PER-SECOND 30
:FULLY-SPECIFIED
:DEGREES
133
root  -5.0882 40.8007 0.00894351 -179.594 -87.0668 179.055
RightUpLeg  8.11259 -1.92678 -2.24574
RightLeg  -2.34221 -16.8927 0.00204553
RightFoot  -2.93552 -0.347824 4.4149
RightToes  -3.10096e-008 1.75238e-005 3.56266e-009
Spine  -13.6612 -0.621197 -5.9596
Spine1  17.085 -1.18876 4.32501
HEad  -20.3017 0.831581 9.7133
LeftShoulder1  2.22615 -3.04732 -27.9009
LeftArm  -45.6955 44.9593 -64.6799
LeftForeArm  139.799 -57.0827 -162.118
LeftHand  0.473858 -7.88343 -3.74977
RightShoulder  2.59019 3.89572 29.0937
RightArm  -25.2704 -30.8781 45.2088
RightForeArm  145.792 62.6867 158.493
RightHand  -0.35482 9.31022 -3.18677
LeftUpLeg  7.41177 1.48415 1.83712
LeftLeg  -2.23734 14.0982 -0.724664
LeftFoot  -3.33853 0.215767 -2.67288
LeftToes  4.7633e-008 1.48299e-008 1.30754e-009
134
root  -5.0204 40.8049 0.0206483 -178.646 -87.5798 177.902
RightUpLeg  8.22148 -2.01508 -2.28316
RightLeg  -2.2238 -17.3562 0.0129431
RightFoot  -2.92583 -0.350013 4.46068
RightToes  -3.10096e-008 1.75238e-005 3.56266e-009
Spine  -13.102 -0.882416 -6.00241
Spine1  16.8802 -1.555 4.53928
HEad  -20.1224 0.822298 8.13934
LeftShoulder1  2.35159 -3.38244 -28.0701
LeftArm  -41.148 43.1268 -59.7479
LeftForeArm  138.233 -57.8619 -161.49
LeftHand  0.270957 -7.08187 -2.16355
RightShoulder  2.70227 4.27808 28.7984
RightArm  -22.7083 -30.2203 44.3522
RightForeArm  142.731 64.1462 156.86
RightHand  -0.493728 9.28626 -4.29412
LeftUpLeg  7.40124 1.5158 1.84863
LeftLeg  -2.11684 13.5942 -0.723502
LeftFoot  -3.24444 0.204722 -2.49657
LeftToes  4.7633e-008 1.48299e-008 1.30754e-009
135
root  -4.9615 40.8151 0.0354814 -176.891 -87.8787 176.112
RightUpLeg  8.19021 -2.09688 -2.37968
RightLeg  -2.18178 -17.5024 0.0438624
RightFoot  -2.84084 -0.350541 4.45619
RightToes  -3.10096e-008 1.75238e-005 3.56266e-009
Spine  -12.4699 -0.813102 -5.85644
Spine1  15.9253 -1.52387 4.63791
HEad  -19.1894 0.514046 6.98916
LeftShoulder1  2.58324 -4.00898 -28.3271
LeftArm  -36.3521 40.362 -54.141
LeftForeArm  138.225 -58.9872 -160.72
LeftHand  0.0534164 -6.47591 -0.181376
RightShoulder  2.6234 4.19168 28.1507
RightArm  -20.1679 -29.575 43.3395
RightForeArm  141.974 65.3432 155.569
RightHand  -0.588166 8.87516 -5.15702
LeftUpLeg  7.39847 1.42377 1.76005
LeftLeg  -2.31706 13.4014 -0.730708
LeftFoot  -3.08708 0.211175 -2.59138
LeftToes  4.7633e-008 1.48299e-008 1.30754e-009
136
root  -4.91859 40.8197 0.0541596 -176.992 -88.3838 176.309
RightUpLeg  8.29337 -2.10855 -2.33469
RightLeg  -2.66304 -18.0473 0.285107
RightFoot  -2.64277 -0.343655 4.27879
RightToes  -3.10096e-008 1.75238e-005 3.56266e-009
Spine  -12.3877 -0.905197 -5.27002
Spine1  15.4978 -1.5158 4.04668
HEad  -18.3101 0.19723 6.53496
LeftShoulder1  2.62521 -4.20376 -27.9901
LeftArm  -32.204 36.4366 -49.7902
LeftForeArm  139.719 -60.2441 -159.927
LeftHand  -0.257636 -5.73427 3.0138
RightShoulder  2.68162 4.41534 27.911
RightArm  -17.6525 -28.7485 41.8186
RightForeArm  140.569 66.3336 154.323
RightHand  -0.690081 9.09906 -5.9007
LeftUpLeg  7.12283 1.4057 1.80422
LeftLeg  -2.22813 12.9188 -0.670919
LeftFoot  -3.07696 0.220951 -2.73697
LeftToes  4.7633e-008 1.48299e-008 1.30754e-009
137
root  -4.85712 40.8289 0.0657963 -173.64 -88.6756 173.172
RightUpLeg  8.04891 -2.09455 -2.38384
RightLeg  -2.73586 -18.2814 0.322564
RightFoot  -2.53041 -0.347394 4.27987
RightToes  -3.10096e-008 1.75238e-005 3.56266e-009
Spine  -12.3231 -0.789939 -4.61461
Spine1  15.0542 -1.24231 3.32254
HEad  -17.6595 -0.194254 6.41528
LeftShoulder1  2.76304 -4.58368 -28.1013
LeftArm  -28.6297 31.6599 -45.7873
LeftForeArm  141.274 -61.7843 -158.842
LeftHand  -0.524686 -4.7037 6.34858
RightShoulder  2.74125 4.61914 27.791
RightArm  -15.1579 -28.435 40.4399
RightForeArm  138.947 67.02 153.326
RightHand  -0.821024 9.3584 -6.83152
LeftUpLeg  6.83286 1.41333 1.79456
LeftLeg  -2.40032 12.6256 -0.814533
LeftFoot  -2.8768 0.211441 -2.58173
LeftToes  4.7633e-008 1.48299e-008 1.30754e-009
138
root  -4.7835 40.8345 0.0808185 -164.742 -88.8008 164.345
RightUpLeg  7.85444 -2.16271 -2.55095
RightLeg  -2.75465 -18.4939 0.294511
RightFoot  -2.4721 -0.354146 4.34531
RightToes  -3.10096e-008 1.75238e-005 3.56266e-009
Spine  -12.1929 -0.66712 -4.33698
Spine1  14.9249 -1.04006 2.99672
HEad  -17.5104 -0.658226 6.1219
LeftShoulder1  2.83139 -4.76317 -28.1901
LeftArm  -26.2599 25.809 -43.4106
LeftForeArm  142.761 -63.9114 -157.098
LeftHand  -0.692179 -3.91358 8.86539
RightShoulder  2.7961 4.85551 27.4803
RightArm  -13.0766 -28.4527 39.7388
RightForeArm  136.87 67.6805 152.239
RightHand  -0.909264 9.51067 -7.45229
LeftUpLeg  6.6471 1.28901 1.59426
LeftLeg  -2.48226 12.6134 -0.878217
LeftFoot  -2.72786 0.205094 -2.47509
LeftToes  4.7633e-008 1.48299e-008 1.30754e-009
139
root  -4.70547 40.841 0.102089 -144.359 -89.2371 143.988
RightUpLeg  7.72237 -2.28004 -2.67449
RightLeg  -2.64552 -18.8451 0.328404
RightFoot  -2.42382 -0.358238 4.38603
RightToes  -3.10096e-008 1.75238e-005 3.56266e-009
Spine  -12.2578 -0.716104 -4.03001
Spine1  15.1532 -1.03931 2.70405
HEad  -17.2435 -1.33219 6.01504
LeftShoulder1  2.97688 -5.15022 -28.3418
LeftArm  -25.1195 19.2466 -42.0529
LeftForeArm  147.762 -66.559 -154.896
LeftHand  -0.806155 -4.10275 10.1619
RightShoulder  2.80945 4.97243 27.1634
RightArm  -11.8498 -27.7869 39.8596
RightForeArm  134.326 68.9797 150.113
RightHand  -0.86327 9.28406 -7.19961
LeftUpLeg  6.39132 1.14782 1.46717
LeftLeg  -2.42324 12.2715 -0.82018
LeftFoot  -2.57156 0.204893 -2.46356
LeftToes  4.7633e-008 1.48299e-008 1.30754e-009
140
root  -4.62856 40.8463 0.110798 -88.975 -89.4498 88.479
RightUpLeg  7.78354 -2.36365 -2.77596
RightLeg  -2.51729 -19.3711 0.294281
RightFoot  -2.40562 -0.362908 4.43848
RightToes  -3.10096e-008 1.75238e-005 3.56266e-009
Spine  -11.8235 -0.727214 -3.83002
Spine1  14.8339 -0.963092 2.34382
HEad  -16.9096 -2.29935 6.06055
LeftShoulder1  3.22299 -5.78848 -28.6425
LeftArm  -24.1674 12.0711 -41.176
LeftForeArm  148.675 -69.204 -151.672
LeftHand  -0.764627 -2.80797 11.0046
RightShoulder  2.84389 5.04223 27.3007
RightArm  -10.944 -27.8428 39.9851
RightForeArm  133.311 70.0216 148.37
RightHand  -0.886634 8.95536 -7.5347
LeftUpLeg  6.29634 1.10869 1.39051
LeftLeg  -2.39236 11.6239 -0.84618
LeftFoot  -2.40009 0.198091 -2.349
LeftToes  4.7633e-008 1.48299e-008 1.30754e-009
141
root  -4.55315 40.8493 0.104468 -35.8138 -88.8787 35.0847
RightUpLeg  7.94808 -2.51861 -2.89033
RightLeg  -2.33129 -20.0525 0.292308
RightFoot  -2.46943 -0.366319 4.47412
RightToes  -3.10096e-008 1.75238e-005 3.56266e-009
Spine  -11.5929 -1.00683 -4.09972
Spine1  15.1643 -1.242 2.38896
HEad  -17.0197 -3.03042 6.00805
LeftShoulder1  3.32195 -6.01161 -28.8728
LeftArm  -23.5614 4.21304 -40.5518
LeftForeArm  145.414 -71.926 -146.842
LeftHand  -0.622707 -3.30763 8.60721
RightShoulder  2.92663 5.26398 27.4039
RightArm  -10.4759 -28.9923 40.411
RightForeArm  133.09 70.3189 147.801
RightHand  -0.78108 9.06835 -6.63925
LeftUpLeg  6.31751 0.999734 1.26815
LeftLeg  -2.38235 10.9118 -0.77197
LeftFoot  -2.22553 0.194008 -2.26594
LeftToes  4.7633e-008 1.48299e-008 1.30754e-009
142
root  -4.493 40.854 0.070595 -19.385 -87.7488 18.6501
RightUpLeg  8.06434 -2.58428 -2.83391
RightLeg  -2.44093 -21.2419 0.450911
RightFoot  -2.40542 -0.369758 4.51284
RightToes  -3.10096e-008 1.75238e-005 3.56266e-009
Spine  -12.0096 -1.70944 -4.8312
Spine1  15.889 -2.003 2.7769
HEad  -16.8172 -3.73872 6.12656
LeftShoulder1  3.41557 -6.20982 -29.1319
LeftArm  -24.4888 -4.5921 -39.5503
LeftForeArm  141.687 -75.5944 -137.198
LeftHand  -0.253326 -5.40946 3.05341
RightShoulder  3.00751 5.49239 27.4571
RightArm  -10.0735 -28.4659 41.5656
RightForeArm  130.729 71.7348 144.897
RightHand  -0.743631 8.91197 -6.40324
LeftUpLeg  6.01126 0.923589 1.29633
LeftLeg  -2.26239 9.77596 -0.659031
LeftFoot  -2.05603 0.198063 -2.27577
LeftToes  4.7633e-008 1.48299e-008 1.30754e-009
143
root  -4.44258 40.857 0.0181069 -11.7585 -86.1213 10.9545
RightUpLeg  8.42084 -2.64414 -2.68979
RightLeg  -2.77146 -22.8924 0.728207
RightFoot  -2.34393 -0.365223 4.43038
RightToes  -3.10096e-008 1.75238e-005 3.56266e-009
Spine  -12.0438 -2.40413 -5.64666
Spine1  15.9574 -2.73069 3.13466
HEad  -16.3952 -4.73101 6.49928
LeftShoulder1  3.49675 -6.54594 -28.758
LeftArm  -26.2023 -15.6955 -39.0006
LeftForeArm  111.798 -79.8973 -103.773
LeftHand  0.573265 -7.80905 -4.60314
RightShoulder  3.00577 5.57405 27.1238
RightArm  -10.2796 -30.0343 43.3654
RightForeArm  130.655 72.0615 144.208
RightHand  -0.711146 8.80091 -6.18445
LeftUpLeg  5.68347 1.0249 1.4933
LeftLeg  -2.04781 7.97729 -0.652644
LeftFoot  -1.93364 0.200979 -2.25593
LeftToes  4.7633e-008 1.48299e-008 1.30754e-009
144
root  -4.40096 40.8618 -0.0384847 -10.2577 -84.6658 9.28819
RightUpLeg  8.79934 -2.74648 -2.64258
RightLeg  -2.94853 -24.243 0.908197
RightFoot  -2.321 -0.362833 4.3838
RightToes  -3.10096e-008 1.75238e-005 3.56266e-009
Spine  -12.2406 -3.07993 -6.6592
Spine1  16.3551 -3.48006 3.71409
HEad  -15.618 -5.37282 6.6258
LeftShoulder1  3.63671 -7.15378 -28.0691
LeftArm  -29.934 -26.3698 -38.5723
LeftForeArm  55.0497 -77.0355 -49.2138
LeftHand  1.47959 -9.53059 -11.0941
RightShoulder  3.01912 5.64829 26.9958
RightArm  -9.91031 -30.5443 44.4399
RightForeArm  129.034 72.7299 142.488
RightHand  -0.693986 8.68975 -6.08801
LeftUpLeg  5.56952 0.964855 1.50381
LeftLeg  -1.98498 6.59523 -0.559477
LeftFoot  -1.73019 0.208492 -2.32495
LeftToes  4.7633e-008 1.48299e-008 1.30754e-009
145
root  -4.31109 40.8705 -0.100013 -9.84879 -83.4104 8.74138
RightUpLeg  8.90413 -2.86991 -2.64435
RightLeg  -2.84428 -25.4161 0.973522
RightFoot  -2.3071 -0.363852 4.3927
RightToes  -3.10096e-008 1.75238e-005 3.56266e-009
Spine  -11.3592 -4.32342 -8.27308
Spine1  15.5729 -4.95487 4.89333
HEad  -14.0169 -4.4609 6.34372
LeftShoulder1  3.52568 -7.27691 -26.6029
LeftArm  -36.5824 -34.2273 -37.9174
LeftForeArm  28.0293 -67.2096 -24.806
LeftHand  1.30788 -8.2098 -10.6905
RightShoulder  2.99556 5.63376 26.7825
RightArm  -8.27868 -29.9065 45.2052
RightForeArm  126.736 73.8698 139.336
RightHand  -0.689848 8.55834 -6.10534
LeftUpLeg  5.43947 0.898094 1.49019
LeftLeg  -2.06373 5.4239 -0.532753
LeftFoot  -1.41312 0.213118 -2.37216
LeftToes  4.7633e-008 1.48299e-008 1.30754e-009
146
root  -4.24712 40.8768 -0.145734 -9.12732 -83.0256 8.02971
RightUpLeg  8.75382 -2.90901 -2.56455
RightLeg  -2.69632 -25.7893 1.03218
RightFoot  -2.30592 -0.350829 4.1861
RightToes  -3.10096e-008 1.75238e-005 3.56266e-009
Spine  -10.4355 -5.39297 -9.68843
Spine1  14.3323 -6.35885 6.36423
HEad  -11.781 -3.07488 5.27388
LeftShoulder1  3.30004 -7.0093 -25.2283
LeftArm  -45.3506 -40.0157 -36.5928
LeftForeArm  14.8822 -55.1191 -14.8977
LeftHand  0.844821 -6.3462 -7.99784
RightShoulder  3.08739 5.82706 27.0979
RightArm  -6.43763 -29.4424 44.6452
RightForeArm  126.09 74.4972 137.486
RightHand  -0.648945 8.56135 -5.7647
LeftUpLeg  5.26806 0.910295 1.58927
LeftLeg  -2.07967 5.0436 -0.507384
LeftFoot  -1.23881 0.215443 -2.39202
LeftToes  4.7633e-008 1.48299e-008 1.30754e-009
147
root  -4.20699 40.8814 -0.172244 -9.51291 -83.6855 8.40305
RightUpLeg  8.48167 -2.8298 -2.49783
RightLeg  -2.41201 -25.2352 0.876509
RightFoot  -2.30571 -0.348135 4.14229
RightToes  -3.10096e-008 1.75238e-005 3.56266e-009
Spine  -10.1868 -5.96316 -10.4282
Spine1  14.0274 -7.2036 7.44646
HEad  -9.65758 -2.28542 4.42946
LeftShoulder1  2.96285 -6.22418 -24.2599
LeftArm  -55.4129 -44.5453 -34.301
LeftForeArm  10.1589 -44.3058 -10.1459
LeftHand  0.592404 -4.72717 -6.50176
RightShoulder  3.17994 6.02085 27.4068
RightArm  -4.91151 -29.042 43.7476
RightForeArm  125.682 74.6336 137.007
RightHand  -0.570864 8.59719 -5.10806
LeftUpLeg  5.37094 0.939879 1.64961
LeftLeg  -2.23705 5.67285 -0.519839
LeftFoot  -1.15493 0.21666 -2.40173
LeftToes  4.7633e-008 1.48299e-008 1.30754e-009
